<svg xmlns="http://www.w3.org/2000/svg" viewBox="0 0 512 512"><rect width="512" height="512" rx="114" ry="114" fill="#6C9A7A"></rect><svg x="96" y="112" width="320" height="288" viewBox="10 22 180 154"><circle cx="54" cy="66" r="33" fill="#f7f4ec"></circle><circle cx="146" cy="66" r="33" fill="#f7f4ec"></circle><circle cx="54" cy="69" r="16" fill="#6C9A7A"></circle><circle cx="146" cy="69" r="16" fill="#6C9A7A"></circle><ellipse cx="100" cy="112" rx="56" ry="52" fill="#f7f4ec"></ellipse><path d="M100,104 C89,104 83,111 81,121 C79,131 76,136 76,142 C76,153 87,159 100,159 C113,159 124,153 124,142 C124,136 121,131 119,121 C117,111 111,104 100,104 Z" fill="#6C9A7A"></path><circle cx="77" cy="93" r="7" fill="#6C9A7A"></circle><circle cx="123" cy="93" r="7" fill="#6C9A7A"></circle></svg></svg>