<svg xmlns="http://www.w3.org/2000/svg" viewBox="10 22 180 154" fill="none"><circle cx="54" cy="66" r="33" fill="#6C9A7A"></circle><circle cx="146" cy="66" r="33" fill="#6C9A7A"></circle><circle cx="54" cy="69" r="16" fill="#d6e3da"></circle><circle cx="146" cy="69" r="16" fill="#d6e3da"></circle><ellipse cx="100" cy="112" rx="56" ry="52" fill="#6C9A7A"></ellipse><path d="M100,104 C89,104 83,111 81,121 C79,131 76,136 76,142 C76,153 87,159 100,159 C113,159 124,153 124,142 C124,136 121,131 119,121 C117,111 111,104 100,104 Z" fill="#435f4a"></path><circle cx="77" cy="93" r="7" fill="#435f4a"></circle><circle cx="123" cy="93" r="7" fill="#435f4a"></circle></svg>